<?xml version="1.0" encoding="iso-8859-1"?>
<!-- Generator: Adobe Illustrator 19.0.0, SVG Export Plug-In . SVG Version: 6.00 Build 0)  -->
<svg version="1.1" id="Capa_1" xmlns="http://www.w3.org/2000/svg" xmlns:xlink="http://www.w3.org/1999/xlink" x="0px" y="0px"
	 viewBox="0 0 512 512" style="enable-background:new 0 0 512 512;" xml:space="preserve">
<g>
	<g>
		<path d="M323.19,242.557c-5.065-3.396-11.654-3.396-16.72,0c-3.748,2.519-36.616,25.504-36.616,57.42
			c0,31.916,32.868,54.902,36.616,57.42c2.533,1.698,5.446,2.548,8.359,2.548c2.913,0,5.827-0.85,8.36-2.548
			c3.748-2.519,36.616-25.504,36.616-57.42S326.938,245.074,323.19,242.557z"/>
	</g>
</g>
<g>
	<g>
		<path d="M451.295,368.715c-1.171-5.974-5.856-10.644-11.83-11.816c-4.407-0.864-43.907-7.833-66.483,14.714
			c-22.576,22.561-15.578,62.076-14.714,66.512c1.171,5.974,5.856,10.643,11.83,11.815c1.786,0.352,9.267,1.684,19.048,1.684
			c14.465,0,33.966-2.942,47.435-16.397C459.156,412.666,452.158,373.151,451.295,368.715z"/>
	</g>
</g>
<g>
	<g>
		<path d="M316.645,431.852c-22.59-22.59-62.076-15.607-66.497-14.714c-5.974,1.186-10.643,5.842-11.815,11.815
			c-0.864,4.436-7.862,43.951,14.714,66.497c13.47,13.47,32.941,16.412,47.42,16.412c9.795,0,17.291-1.347,19.077-1.698
			c5.974-1.171,10.643-5.842,11.815-11.815C332.223,493.913,339.221,454.412,316.645,431.852z"/>
	</g>
</g>
<g>
	<g>
		<path d="M502.735,138.067c0,0-0.024-0.016-0.033-0.029l-71.94-95.91c-19.691-26.295-51.08-41.989-83.949-41.989H203.079
			c-33.732,0-67.2,10.614-94.798,29.969c-1.771,0.015-3.352,0.029-3.352,0.029l-89.937-0.014C6.705,30.122,0,36.828,0,45.114
			v119.935c0,8.287,6.705,14.992,14.992,14.992h114.269c50.102,44.064,104.259,50.12,156.99,3.748
			c2.753-2.416,6.267-3.748,9.912-3.748c43.573,0,40.115,0,50.65,0c16.56,0,29.984-13.426,29.984-29.984
			c0-16.56-13.424-29.984-29.984-29.984c-45.06,0-33.822,0-78.569,0c-17.159,0-32.575-9.531-40.217-24.875
			c-3.704-7.408-0.688-16.412,6.72-20.101c7.437-3.748,16.427-0.674,20.101,6.72c2.548,5.109,7.686,8.272,13.396,8.272h88.612
			c12.459,0,24.45,5.226,32.926,14.333l74.035,79.48C488.424,210.314,530.81,175.43,502.735,138.067z"/>
	</g>
</g>
<g>
</g>
<g>
</g>
<g>
</g>
<g>
</g>
<g>
</g>
<g>
</g>
<g>
</g>
<g>
</g>
<g>
</g>
<g>
</g>
<g>
</g>
<g>
</g>
<g>
</g>
<g>
</g>
<g>
</g>
</svg>
