<svg viewBox="0 0 512 512" xmlns="http://www.w3.org/2000/svg"><path d="m256 391c8.277344 0 15-6.722656 15-15s-6.722656-15-15-15-15 6.722656-15 15 6.722656 15 15 15zm0 0"/><path d="m256 121c-36.226562 0-66.519531 25.8125-73.492188 60h31.054688c6.199219-17.460938 22.882812-30 42.4375-30 24.816406 0 45 20.1875 45 45 0 16.597656-9.097656 31.800781-23.742188 39.667969-22.355468 12.054687-36.257812 36.621093-36.257812 64.132812v1.199219l30-1.199219c0-16.464843 7.851562-30.910156 20.492188-37.722656 24.363281-13.109375 39.507812-38.4375 39.507812-66.078125 0-41.351562-33.648438-75-75-75zm0 0"/><path d="m256 0c-140.609375 0-256 115.390625-256 256s115.390625 256 256 256 256-115.390625 256-256-115.390625-256-256-256zm49.703125 288.503906c-2.273437 1.230469-4.703125 5.597656-4.703125 11.296875v31.199219h-45c24.8125 0 45 20.1875 45 45s-20.1875 45-45 45-45-20.1875-45-45 20.1875-45 45-45h-45v-31.199219c0-38.558593 19.9375-73.242187 52.03125-90.542969 4.921875-2.652343 7.96875-7.722656 7.96875-13.257812 0-8.277344-6.722656-15-15-15s-15 6.722656-15 15v15h-90v-15c0-57.890625 47.109375-105 105-105s105 47.109375 105 105c0 38.699219-21.183594 74.148438-55.296875 92.503906zm0 0"/></svg>